# xmcd
#
# Track frame offsets:
#	150
#	10960
#	28980
#	42643
#	62571
#	80523
#	92203
#	104967
#	118837
#	129440
#	144175
#	159712
#	179195
#	192784
#	209728
#	225439
#
# Disc length: 3164 seconds
#
# Revision: 2
# Processed by: cddbd v1.4PL0 Copyright (c) Steve Scherf et al.
# Submitted via: audiograbber 1.82.01
#
DISCID=f00c5a10
DTITLE=Johnny Cash - Johnny Cash
DYEAR=1987
DGENRE=Country
TTITLE0=I walk the line
TTITLE1=Ballad of a teenage queen
TTITLE2=Big river
TTITLE3=Guess things happen that way
TTITLE4=Born to lose
TTITLE5=Get rhythm
TTITLE6=Wreck of the old 97
TTITLE7=Give my love to Rose
TTITLE8=Luther played the Boogie
TTITLE9=Hey porter
TTITLE10=Mean eyed cat
TTITLE11=Train of love
TTITLE12=You are the nearest thing to heaven
TTITLE13=Rock Island line
TTITLE14=Cold cold heart
TTITLE15=Folsom Prison Blues
EXTD=
EXTT0=
EXTT1=
EXTT2=
EXTT3=
EXTT4=
EXTT5=
EXTT6=
EXTT7=
EXTT8=
EXTT9=
EXTT10=
EXTT11=
EXTT12=
EXTT13=
EXTT14=
EXTT15=
PLAYORDER=
